<?xml version="1.0" encoding="UTF-8"?>
<svg id="Ebene_1" data-name="Ebene 1" xmlns="http://www.w3.org/2000/svg" viewBox="0 0 338.35 285.6">
  <defs>
    <style>
      .cls-1 {
        fill: none;
        stroke: #1d1d1b;
        stroke-width: 35px;
      }
    </style>
  </defs>
  <path class="cls-1" d="m103.71,186.26l159.35,77.73c26.69,13.02,57.79-6.41,57.79-36.11h0c0-14.81-8.15-28.43-21.21-35.42l-11.76-6.29c-15.99-8.56-25.98-25.23-25.98-43.37h0c0-18.14,9.98-34.81,25.98-43.37l11.76-6.29c13.06-6.99,21.21-20.6,21.21-35.42h0c0-29.69-31.1-49.12-57.79-36.11L103.71,99.35c-36.2,17.66-36.2,69.25,0,86.91Z"/>
  <path class="cls-1" d="m234.63,99.35L75.29,21.62c-26.69-13.02-57.79,6.41-57.79,36.11h0c0,14.81,8.15,28.43,21.21,35.42l11.76,6.29c15.99,8.56,25.98,25.23,25.98,43.37h0c0,18.14-9.98,34.81-25.98,43.37l-11.76,6.29c-13.06,6.99-21.21,20.6-21.21,35.42h0c0,29.69,31.1,49.12,57.79,36.11l159.35-77.73c36.2-17.66,36.2-69.25,0-86.91Z"/>
</svg>