<?xml version="1.0" encoding="UTF-8"?>
<svg id="Ebene_1" data-name="Ebene 1" xmlns="http://www.w3.org/2000/svg" viewBox="0 0 292.7 286.2">
  <defs>
    <style>
      .cls-1 {
        fill: none;
        stroke: #1d1d1b;
        stroke-width: 35px;
      }
    </style>
  </defs>
  <path class="cls-1" d="m101.66,45.42L21.73,209.28c-13.39,27.44,6.6,59.42,37.13,59.42h0c15.23,0,29.23-8.38,36.42-21.82l6.47-12.09c8.8-16.44,25.94-26.71,44.59-26.71h0c18.65,0,35.79,10.27,44.59,26.71l6.47,12.09c7.19,13.43,21.19,21.82,36.42,21.82h0c30.53,0,50.51-31.98,37.13-59.42L191.03,45.42c-18.16-37.23-71.21-37.23-89.37,0Z"/>
  <path class="cls-1" d="m191.03,240.78l79.93-163.86c13.39-27.44-6.6-59.42-37.13-59.42h0c-15.23,0-29.23,8.38-36.42,21.82l-6.47,12.09c-8.8,16.44-25.94,26.71-44.59,26.71h0c-18.65,0-35.79-10.27-44.59-26.71l-6.47-12.09c-7.19-13.43-21.19-21.82-36.42-21.82h0c-30.53,0-50.51,31.98-37.13,59.42l79.93,163.86c18.16,37.23,71.21,37.23,89.37,0Z"/>
</svg>