<?xml version="1.0" encoding="UTF-8"?>
<svg id="Ebene_1" data-name="Ebene 1" xmlns="http://www.w3.org/2000/svg" viewBox="0 0 377.48 284.23">
  <defs>
    <style>
      .cls-1 {
        fill: none;
        stroke: #1d1d1b;
        stroke-width: 35px;
      }
    </style>
  </defs>
  <path class="cls-1" d="m184.04,239.91l82.21-159.28c13.77-26.68-5.16-58.55-35.17-59.23h0c-14.97-.34-28.92,7.59-36.28,20.63l-6.63,11.74c-9.02,15.97-26.09,25.68-44.43,25.26h0c-18.33-.41-34.95-10.89-43.24-27.25l-6.09-12.03c-6.77-13.36-20.34-21.91-35.31-22.25h0c-30.01-.68-50.36,30.31-37.81,57.58l74.93,162.83c17.02,36.99,69.17,38.17,87.84,1.99Z"/>
  <path class="cls-1" d="m193.45,44.31l-82.21,159.28c-13.77,26.68,5.16,58.55,35.17,59.23h0c14.97.34,28.92-7.59,36.28-20.63l6.63-11.74c9.02-15.97,26.09-25.68,44.43-25.26h0c18.33.41,34.95,10.89,43.24,27.25l6.09,12.03c6.77,13.36,20.34,21.91,35.31,22.25h0c30.01.68,50.36-30.31,37.82-57.58l-74.92-162.84c-17.02-36.99-69.17-38.17-87.84-1.99Z"/>
</svg>